<svg width="42" height="42" viewBox="0 0 42 42" fill="none" xmlns="http://www.w3.org/2000/svg">
<path d="M1 5C1 2.79086 2.79086 1 5 1H15C17.2091 1 19 2.79086 19 5V19H5C2.79086 19 1 17.2091 1 15V5Z" stroke="#000" stroke-width="2"/>
<path d="M23 23H37C39.2091 23 41 24.7909 41 27V37C41 39.2091 39.2091 41 37 41H27C24.7909 41 23 39.2091 23 37V23Z" stroke="#000" stroke-width="2"/>
<path d="M23 5C23 2.79086 24.7909 1 27 1H37C39.2091 1 41 2.79086 41 5V15C41 17.2091 39.2091 19 37 19H23V5Z" stroke="#000" stroke-width="2"/>
<path d="M1 27C1 24.7909 2.79086 23 5 23H19V37C19 39.2091 17.2091 41 15 41H5C2.79086 41 1 39.2091 1 37V27Z" stroke="#000" stroke-width="2"/>
</svg>
